<svg xmlns="http://www.w3.org/2000/svg" viewBox="0 0 512 512" role="img" aria-label="Omosanya Home">
  <defs>
    <linearGradient id="bg" x1="72" y1="52" x2="440" y2="468" gradientUnits="userSpaceOnUse">
      <stop stop-color="#147c72"/>
      <stop offset="1" stop-color="#0d3f3a"/>
    </linearGradient>
    <linearGradient id="roof" x1="126" y1="165" x2="395" y2="382" gradientUnits="userSpaceOnUse">
      <stop stop-color="#f8faf6"/>
      <stop offset="1" stop-color="#f3b33d"/>
    </linearGradient>
    <filter id="shadow" x="-20%" y="-20%" width="140%" height="140%">
      <feDropShadow dx="0" dy="18" stdDeviation="18" flood-color="#062a27" flood-opacity=".35"/>
    </filter>
  </defs>

  <rect width="512" height="512" rx="112" fill="#0d1215"/>
  <rect x="34" y="34" width="444" height="444" rx="96" fill="url(#bg)"/>
  <rect x="54" y="54" width="404" height="404" rx="82" fill="none" stroke="#f8faf6" stroke-opacity=".18" stroke-width="5"/>

  <g filter="url(#shadow)">
    <path d="M128 246 256 138l128 108" fill="none" stroke="url(#roof)" stroke-width="38" stroke-linecap="round" stroke-linejoin="round"/>
    <path d="M160 246v146h192V246" fill="none" stroke="#f8faf6" stroke-width="30" stroke-linecap="round" stroke-linejoin="round"/>
    <path d="M219 392v-92h74v92" fill="none" stroke="#f3b33d" stroke-width="26" stroke-linecap="round" stroke-linejoin="round"/>
  </g>

  <g>
    <circle cx="194" cy="326" r="18" fill="#f8faf6"/>
    <circle cx="256" cy="288" r="20" fill="#f8faf6"/>
    <circle cx="318" cy="326" r="18" fill="#f8faf6"/>
    <path d="M190 392c18-34 40-51 66-51s48 17 66 51" fill="none" stroke="#f3b33d" stroke-width="20" stroke-linecap="round"/>
  </g>

  <path d="M142 416c38 32 76 48 114 48s76-16 114-48" fill="none" stroke="#f8faf6" stroke-opacity=".22" stroke-width="12" stroke-linecap="round"/>
</svg>
